{"title":"Hysteria 2011.1080p.BluRay.x264 . NVEE","uid":8763227,"size":2002434784,"categoryP":"video","categoryS":"hd___movies","magnet":"?xt=urn:btih:409006da962df91c0d9cc02291454be1c45868e8&amp;dn=Hysteria+2011.1080p.BluRay.x264+.+NVEE&amp;tr=udp%3A%2F%2Ftracker.openbittorrent.com%3A80&amp;tr=udp%3A%2F%2Fopen.demonii.com%3A1337&amp;tr=udp%3A%2F%2Ftracker.coppersurfer.tk%3A6969&amp;tr=udp%3A%2F%2Fexodus.desync.com%3A6969","seeders":4,"leechers":0,"uploader":".NVEE","files":2,"time":1375283641,"description":"\n\nFULL_INFOs\n\n\n99.99% &gt;&gt;&gt; SYNCED GUARANTEED \n\nSource : BluRay ~ 1080p\n\nMy Media Player of Choice &quot;VLC Media Player&quot;\n\nSpoken Language : English Only\n\nAudio : 6 ~ Channels Only\n\n\n &lt;a href=&quot;\nhttp://www.imdb.com/title/tt1435513/&quot; rel=&quot;nofollow&quot; target=&quot;_NEW&quot;&gt;\nhttp://www.imdb.com/title/tt1435513/&lt;/a&gt;\n\n\n\nSubs Info : MULTI_SUBS\n\n &lt;a href=&quot;\nhttp://www.subtitleseeker.com/1435513/Hysteria/Subtitles/&quot; rel=&quot;nofollow&quot; target=&quot;_NEW&quot;&gt;\nhttp://www.subtitleseeker.com/1435513/Hysteria/Subtitles/&lt;/a&gt;\n\n290 Subtitles In 32 Languages Use Link Provided \n &lt;a href=&quot;\nhttp://www.subtitleseeker.com/1435513/Hysteria/Subtitles/&quot; rel=&quot;nofollow&quot; target=&quot;_NEW&quot;&gt;\nhttp://www.subtitleseeker.com/1435513/Hysteria/Subtitles/&lt;/a&gt;\n\n290 Subtitles In 32 Languages Only @ SubtitleSeeker\n &lt;a href=&quot;\nhttp://www.subtitleseeker.com/1435513/Hysteria/Subtitles/&quot; rel=&quot;nofollow&quot; target=&quot;_NEW&quot;&gt;\nhttp://www.subtitleseeker.com/1435513/Hysteria/Subtitles/&lt;/a&gt;\n\nAll .srt subs can be turned On/Off\n\n\n\n &lt;a href=&quot;\nhttp://www.imdb.com/title/tt1435513/&quot; rel=&quot;nofollow&quot; target=&quot;_NEW&quot;&gt;\nhttp://www.imdb.com/title/tt1435513/&lt;/a&gt;\n\n\n\n\n--------------------------------------------------------------------------------\n\n\nGeneral\n\nComplete name : Hysteria 2011.1080p.BluRay.x264 . NVEE.mp4\nFormat : MPEG-4\nFormat profile : Base Media\nCodec ID : isom\nFile size : 1.86 GiB\nDuration : 1h 35mn\nOverall bit rate : 2 800 Kbps\nEncoded date : UTC 2013-07-25 22:25:59\nTagged date : UTC 2013-07-25 22:25:59\n\nVideo\n\nID : 1\nFormat : AVC\nFormat/Info : Advanced Video Codec\nFormat profile : &lt;a class=&quot;__cf_email__&quot; href=&quot;/cdn-cgi/l/email-protection&quot; data-cfemail=&quot;97dffef0ffd7dba3b9a7&quot;&gt;[email&amp;#160;protected]&lt;/a&gt;&lt;script cf-hash='f9e31' type=&quot;text/javascript&quot;&gt;\n/* &lt;![CDATA[ */!function(){try{var t=&quot;currentScript&quot;in document?document.currentScript:function(){for(var t=document.getElementsByTagName(&quot;script&quot;),e=t.length;e--;)if(t[e].getAttribute(&quot;cf-hash&quot;))return t[e]}();if(t&amp;&amp;t.previousSibling){var e,r,n,i,c=t.previousSibling,a=c.getAttribute(&quot;data-cfemail&quot;);if(a){for(e=&quot;&quot;,r=parseInt(a.substr(0,2),16),n=2;a.length-n;n+=2)i=parseInt(a.substr(n,2),16)^r,e+=String.fromCharCode(i);e=document.createTextNode(e),c.parentNode.replaceChild(e,c)}}}catch(u){}}();/* ]]&gt; */&lt;/script&gt;\nFormat settings, CABAC : Yes\nFormat settings, ReFrames : 4 frames\nCodec ID : avc1\nCodec ID/Info : Advanced Video Coding\nDuration : 1h 35mn\nBit rate : 2 351 Kbps\nMaximum bit rate : 9 096 Kbps\nWidth : 1 920 pixels\nHeight : 824 pixels\nDisplay aspect ratio : 2.35:1\nFrame rate mode : Constant\nFrame rate : 25.000 fps\nColor space : YUV\nChroma subsampling : 4:2:0\nBit depth : 8 bits\nScan type : Progressive\nBits/(Pixel*Frame) : 0.059\nStream size : 1.56 GiB (84%)\nTitle : 1080p.BluRay.x264 .264#trackID=1:fps=&lt;a class=&quot;__cf_email__&quot; href=&quot;/cdn-cgi/l/email-protection&quot; data-cfemail=&quot;b48681f4f3e4f5f7849a819a8599f0f1e299c6d1c280868c87&quot;&gt;[email&amp;#160;protected]&lt;/a&gt;&lt;script cf-hash='f9e31' type=&quot;text/javascript&quot;&gt;\n/* &lt;![CDATA[ */!function(){try{var t=&quot;currentScript&quot;in document?document.currentScript:function(){for(var t=document.getElementsByTagName(&quot;script&quot;),e=t.length;e--;)if(t[e].getAttribute(&quot;cf-hash&quot;))return t[e]}();if(t&amp;&amp;t.previousSibling){var e,r,n,i,c=t.previousSibling,a=c.getAttribute(&quot;data-cfemail&quot;);if(a){for(e=&quot;&quot;,r=parseInt(a.substr(0,2),16),n=2;a.length-n;n+=2)i=parseInt(a.substr(n,2),16)^r,e+=String.fromCharCode(i);e=document.createTextNode(e),c.parentNode.replaceChild(e,c)}}}catch(u){}}();/* ]]&gt; */&lt;/script&gt;\nWriting library : x264 core 133 r2334 a3ac64b\nEncoded date : UTC 2013-07-25 22:25:59\nTagged date : UTC 2013-07-25 22:35:45\n\nAudio\n\nID : 2\nFormat : AC-3\nFormat/Info : Audio Coding 3\nMode extension : CM (complete main)\nFormat settings, Endianness : Big\nCodec ID : ac-3\nDuration : 1h 35mn\nBit rate mode : Constant\nBit rate : 448 Kbps\nChannel(s) : 6 channels\nChannel positions : Front: L C R, Side: L R, LFE\nSampling rate : 48.0 KHz\nBit depth : 16 bits\nCompression mode : Lossy\nStream size : 306 MiB (16%)\nTitle : 1080p.BluRay.x264 . NVEE - [0] English_audio.ac3#trackID=1:lang=&lt;a class=&quot;__cf_email__&quot; href=&quot;/cdn-cgi/l/email-protection&quot; data-cfemail=&quot;74111a3433243537445a415a45593031225906110240464c47&quot;&gt;[email&amp;#160;protected]&lt;/a&gt;&lt;script cf-hash='f9e31' type=&quot;text/javascript&quot;&gt;\n/* &lt;![CDATA[ */!function(){try{var t=&quot;currentScript&quot;in document?document.currentScript:function(){for(var t=document.getElementsByTagName(&quot;script&quot;),e=t.length;e--;)if(t[e].getAttribute(&quot;cf-hash&quot;))return t[e]}();if(t&amp;&amp;t.previousSibling){var e,r,n,i,c=t.previousSibling,a=c.getAttribute(&quot;data-cfemail&quot;);if(a){for(e=&quot;&quot;,r=parseInt(a.substr(0,2),16),n=2;a.length-n;n+=2)i=parseInt(a.substr(n,2),16)^r,e+=String.fromCharCode(i);e=document.createTextNode(e),c.parentNode.replaceChild(e,c)}}}catch(u){}}();/* ]]&gt; */&lt;/script&gt;\nLanguage : English\nEncoded date : UTC 2013-07-25 22:34:23\nTagged date : UTC 2013-07-25 22:35:48\n\n\nSynopsis\n\nSet at the end of the 19th century, the film depicts the invention of the vibrator. Dr. Mortimer Granville (Hugh Dancy) is a young physician who has difficulty with his occupation due to constant arguments over modern medicine. He gets a job assisting Dr. Dalrymple (Jonathan Pryce), whose practice specializes in the treatment of &quot;hysteria&quot;, a popular diagnosis for women of that time. Medical practitioners like Dr. Dalrymple tried to manage hysteria by massaging the genital area, decently covered under a curtain, to elicit &quot;paroxysmal convulsions&quot;, without recognizing that they were inducing orgasms. He meets Dr. Dalrymple's Victorian daughters, Emily (Felicity Jones), and her older sister Charlotte (Maggie Gyllenhaal), a premodern feminist who runs a settlement house in a poor section of London.\nGranville seems to be good at massaging, getting a sizeable following, while at the same time Dr. Dalrymple proposes marriage between Emily and Granville. One night after work, Charlotte comes in with her friend Fannie (Ashley Jensen) who has broken her ankle. After he helps treat her, Dalrymple forbids Granville from offering any future assistance to Charlotte, hoping to dissuade her from her work in the slums. Meanwhile, the increased clientele at the practice is hard on Granville, and his hand musculature is unable to keep up with the task, leading to getting himself fired. Fortunately, his friend Lord Edmund St. John-Smythe has developed an electrical feather duster, and its vibrations give Dr. Granville the idea to modify the gadget for use as an electric massager. After successfully using it on the Dalrymple's maid Molly, he persuades Dr. Dalrymple to try the device on his patients, resulting in massive success. Mortimer and Emily then become engaged, while Charlotte struggles with supporting the welfare house.\nAt the engagement party, Charlotte is arrested after Fannie is almost apprehended by a police officer. At the urge of Emily and Dr. Dalrymple, he decides to testify that she is hysterical in order to prevent her from getting life in prison. During the trial, the prosecutor recommends that Charlotte be sent to a sanitarium and be forced to undergo a hysterectomy. As Mortimer speaks, he explains that the symptoms for hysteria are too common to be regarded as a mental illness, and that he himself believes that Charlotte is the most generous and caring person he knows. The judge agrees with Mortimer's argument, and Charlotte gets sentenced to just thirty days in prison.\nEmily then decides to end their engagement after realizing she was only going to do it to please her father. The vibrator now enters the stage as a medical device for the treatment of the condition, reducing treatment time while greatly increasing customer satisfaction. The royalties from its sale result in independent wealth for Granville, who has since fallen in love with Charlotte. Pledging to use some of his wealth to establish a clinic at her settlement house, he proposes marriage to Charlotte and she accepts.\n\n\n","torrent":{"xt":"urn:btih:409006da962df91c0d9cc02291454be1c45868e8","amp;dn":"Hysteria+2011.1080p.BluRay.x264+.+NVEE","amp;tr":["udp%3A%2F%2Ftracker.openbittorrent.com%3A80","udp%3A%2F%2Fopen.demonii.com%3A1337","udp%3A%2F%2Ftracker.coppersurfer.tk%3A6969","udp%3A%2F%2Fexodus.desync.com%3A6969"],"infoHash":"409006da962df91c0d9cc02291454be1c45868e8","infoHashBuffer":{"type":"Buffer","data":[64,144,6,218,150,45,249,28,13,156,192,34,145,69,75,225,196,88,104,232]},"announce":[],"urlList":[]}}